<svg width="320" height="79" viewBox="0 0 320 79" fill="none" xmlns="http://www.w3.org/2000/svg">
<path d="M27.928 57.442C28.0426 58.2447 28.272 58.818 28.616 59.162C29.0173 59.506 29.4473 59.7353 29.906 59.85C30.3646 59.9647 30.8806 59.9647 31.454 59.85V62H18.812V59.85C19.328 59.9647 19.7866 59.9647 20.188 59.85C20.4746 59.7353 20.7326 59.506 20.962 59.162C21.1913 58.818 21.2486 58.2447 21.134 57.442C21.134 57.3273 20.962 56.324 20.618 54.432C20.3313 52.4827 19.9586 49.9313 19.5 46.778H8.49198C7.91864 49.9313 7.45998 52.4827 7.11598 54.432C6.82931 56.324 6.68598 57.3273 6.68598 57.442C6.51398 58.2447 6.51398 58.818 6.68598 59.162C6.91531 59.506 7.17331 59.7353 7.45998 59.85C7.80398 59.9647 8.26264 59.9647 8.83598 59.85V62H0.579977V59.85C1.09598 59.9647 1.61198 59.9647 2.12798 59.85C2.58664 59.7353 2.98798 59.506 3.33198 59.162C3.73331 58.818 4.01998 58.2447 4.19198 57.442C4.19198 57.3847 4.33531 56.5533 4.62198 54.948C4.90864 53.2853 5.28131 51.1353 5.73998 48.498C6.25598 45.8033 6.82931 42.7647 7.45998 39.382C8.09064 35.9993 8.72131 32.5307 9.35198 28.976L14.512 0.767999H18.898C20.5606 11.26 22.0513 20.634 23.37 28.89C23.9433 32.4447 24.488 35.9133 25.004 39.296C25.52 42.6787 25.9786 45.7173 26.38 48.412C26.8386 51.0493 27.2113 53.1993 27.498 54.862C27.7846 56.5247 27.928 57.3847 27.928 57.442ZM8.83598 44.542H19.242C18.898 42.1913 18.4966 39.6687 18.038 36.974C17.6366 34.2793 17.2066 31.5847 16.748 28.89C16.3466 26.138 15.9166 23.472 15.458 20.892C15.0566 18.312 14.684 15.9327 14.34 13.754C13.8813 15.9327 13.4226 18.312 12.964 20.892C12.5053 23.472 12.018 26.138 11.502 28.89C11.0433 31.5847 10.5846 34.2793 10.126 36.974C9.66731 39.6687 9.23731 42.1913 8.83598 44.542ZM48.2939 19.516C49.6699 19.516 51.0459 19.7453 52.4219 20.204C53.7979 20.6627 55.0305 21.3793 56.1199 22.354C57.2665 23.2713 58.1839 24.504 58.8719 26.052C59.6172 27.5427 59.9899 29.3487 59.9899 31.47V51.164C59.9899 52.712 59.6172 54.2027 58.8719 55.636C58.1839 57.0693 57.2665 58.3307 56.1199 59.42C55.0305 60.452 53.7692 61.2833 52.3359 61.914C50.9599 62.4873 49.6125 62.774 48.2939 62.774C47.3192 62.774 46.4592 62.6307 45.7139 62.344C45.0259 62.0573 44.4239 61.7707 43.9079 61.484C43.3919 61.1973 42.9332 60.9107 42.5319 60.624C42.1305 60.3373 41.7292 60.2227 41.3279 60.28C40.8692 60.3373 40.4965 60.4807 40.2099 60.71C39.9805 60.882 39.7799 61.054 39.6079 61.226C39.3785 61.398 39.2065 61.656 39.0919 62H36.7699V5.326C36.7699 4.466 36.6265 3.864 36.3399 3.52C36.0532 3.11866 35.7665 2.86066 35.4799 2.746C35.2505 2.574 34.9065 2.574 34.4479 2.746V0.681995H42.5319V22.612C43.5639 21.2933 44.5385 20.462 45.4559 20.118C46.3732 19.7167 47.3192 19.516 48.2939 19.516ZM53.9699 33.362C53.9699 31.1833 53.8265 29.3487 53.5399 27.858C53.3105 26.31 52.9665 25.106 52.5079 24.246C52.0492 23.386 51.4472 22.784 50.7019 22.44C50.0139 22.0387 49.2112 21.838 48.2939 21.838C47.4912 21.838 46.6885 21.9813 45.8859 22.268C45.1405 22.4973 44.4525 22.956 43.8219 23.644C43.3632 24.2173 43.0192 24.8767 42.7899 25.622C42.6179 26.3673 42.5319 27.342 42.5319 28.546V53.744C42.5319 54.088 42.5892 54.5753 42.7039 55.206C42.8759 55.7793 43.0765 56.3813 43.3059 57.012C43.5352 57.6427 43.8792 58.2447 44.3379 58.818C44.8539 59.3913 45.4272 59.8213 46.0579 60.108C46.8605 60.5667 47.6059 60.796 48.2939 60.796C49.1539 60.7387 49.9279 60.5093 50.6159 60.108C51.3612 59.7067 51.9632 59.0187 52.4219 58.044C52.9379 57.0693 53.3105 55.8367 53.5399 54.346C53.8265 52.8553 53.9699 51.0207 53.9699 48.842V33.362ZM77.4821 19.344C78.8581 19.344 80.2341 19.5733 81.6101 20.032C82.9861 20.4907 84.2475 21.2073 85.3941 22.182C86.5408 23.1567 87.4581 24.418 88.1461 25.966C88.8915 27.514 89.2641 29.3487 89.2641 31.47V50.992C89.2641 52.6547 88.8915 54.2027 88.1461 55.636C87.4008 57.0693 86.4548 58.302 85.3081 59.334C84.2188 60.366 82.9861 61.1973 81.6101 61.828C80.2341 62.4587 78.8581 62.774 77.4821 62.774C76.1061 62.774 74.7015 62.516 73.2681 62C71.8921 61.484 70.6595 60.71 69.5701 59.678C68.4808 58.646 67.5635 57.4133 66.8181 55.98C66.0728 54.4893 65.7001 52.8267 65.7001 50.992V31.642C65.7001 29.4633 66.0441 27.6 66.7321 26.052C67.4775 24.504 68.3948 23.2427 69.4841 22.268C70.6308 21.236 71.8921 20.4907 73.2681 20.032C74.7015 19.5733 76.1061 19.344 77.4821 19.344ZM83.1581 33.362C83.1581 31.1833 83.0148 29.3487 82.7281 27.858C82.4988 26.31 82.1261 25.0773 81.6101 24.16C81.1515 23.2427 80.5495 22.612 79.8041 22.268C79.1161 21.8667 78.3135 21.666 77.3961 21.666C75.5615 21.666 74.1568 22.526 73.1821 24.246C72.2075 25.9087 71.7201 28.9473 71.7201 33.362V48.67C71.7201 53.0847 72.2075 56.2093 73.1821 58.044C74.1568 59.8787 75.5615 60.796 77.3961 60.796C79.2308 60.796 80.6355 59.8787 81.6101 58.044C82.6421 56.2093 83.1581 53.0847 83.1581 48.67V33.362ZM121.601 22.354H121.429C121.371 22.354 121.314 22.354 121.257 22.354C121.199 22.2967 121.142 22.268 121.085 22.268C120.798 22.268 120.454 22.44 120.053 22.784C119.651 23.0707 119.451 23.7587 119.451 24.848C119.451 24.9053 119.451 25.4213 119.451 26.396C119.451 27.3133 119.451 28.546 119.451 30.094C119.451 31.5847 119.451 33.3047 119.451 35.254C119.451 37.2033 119.451 39.21 119.451 41.274C119.451 43.2807 119.422 45.2587 119.365 47.208C119.365 49.1573 119.365 50.906 119.365 52.454C119.365 53.9447 119.365 55.1773 119.365 56.152C119.365 57.1267 119.365 57.6427 119.365 57.7C119.365 58.7893 119.537 59.4487 119.881 59.678C120.282 59.85 120.655 59.936 120.999 59.936C121.113 59.936 121.199 59.9073 121.257 59.85C121.314 59.85 121.371 59.8213 121.429 59.764V62H113.345V58.818C113.115 59.162 112.886 59.4487 112.657 59.678C112.485 59.9073 112.255 60.1653 111.969 60.452C111.109 61.2547 110.077 61.8853 108.873 62.344C108.815 62.344 108.787 62.344 108.787 62.344C108.787 62.4013 108.758 62.43 108.701 62.43H108.615C107.927 62.6593 107.124 62.774 106.207 62.774H105.863C102.939 62.6593 100.559 61.6847 98.7248 59.85C96.9475 57.958 96.0588 54.948 96.0588 50.82V38.35C96.0588 36.63 96.0588 34.9673 96.0588 33.362C96.1161 31.7567 96.1448 30.3233 96.1448 29.062C96.1448 27.8007 96.1448 26.7973 96.1448 26.052C96.2021 25.3067 96.2308 24.9053 96.2308 24.848C96.2308 23.7587 96.0015 23.0707 95.5428 22.784C95.1415 22.44 94.7975 22.268 94.5108 22.268C94.3961 22.268 94.3101 22.2967 94.2528 22.354C94.1955 22.354 94.1381 22.354 94.0808 22.354H93.9088V20.204H104.229V22.354H104.143C104.085 22.354 104.028 22.354 103.971 22.354C103.913 22.2967 103.827 22.268 103.713 22.268C103.369 22.268 103.025 22.4113 102.681 22.698C102.337 22.9273 102.136 23.5007 102.079 24.418C102.079 25.622 102.079 27.1413 102.079 28.976C102.079 30.8107 102.05 32.7313 101.993 34.738C101.993 36.7447 101.993 38.78 101.993 40.844C101.993 42.8507 101.993 44.714 101.993 46.434C101.993 48.0967 101.993 49.5013 101.993 50.648C101.993 51.7947 101.993 52.454 101.993 52.626V52.712C102.107 55.636 102.451 57.7 103.025 58.904C103.655 60.108 104.659 60.7387 106.035 60.796H106.379C108.099 60.796 109.618 60.108 110.937 58.732C112.255 57.356 113.058 55.034 113.345 51.766C113.345 49.014 113.345 46.09 113.345 42.994C113.402 39.8407 113.431 36.9167 113.431 34.222C113.431 31.5273 113.431 29.32 113.431 27.6C113.431 25.88 113.431 24.9627 113.431 24.848C113.431 23.7587 113.259 23.0707 112.915 22.784C112.571 22.44 112.227 22.268 111.883 22.268C111.768 22.268 111.682 22.2967 111.625 22.354C111.567 22.354 111.51 22.354 111.453 22.354H111.281V20.204H121.601V22.354ZM147.833 55.034C147.833 57.0407 147.202 58.6747 145.941 59.936C145.081 60.796 144.077 61.484 142.931 62C141.784 62.516 140.551 62.774 139.233 62.774C137.283 62.774 135.563 62.2293 134.073 61.14C132.582 60.0507 131.493 58.6173 130.805 56.84C130.633 56.3813 130.489 55.9227 130.375 55.464C130.317 54.948 130.289 54.3747 130.289 53.744C130.289 53.572 130.26 53.314 130.203 52.97C130.203 52.5687 130.203 52.11 130.203 51.594C130.203 51.078 130.174 50.5907 130.117 50.132C130.117 49.6733 130.117 49.272 130.117 48.928V22.526H124.183V20.204H130.117V5.154C130.117 4.294 129.973 3.692 129.687 3.348C129.457 2.94666 129.228 2.68866 128.999 2.574C128.712 2.45933 128.339 2.45933 127.881 2.574V0.509997H136.051V20.204H143.275V22.526H136.051C136.051 24.0167 136.051 25.622 136.051 27.342C136.051 29.062 136.022 31.0687 135.965 33.362C135.965 35.598 135.965 37.9487 135.965 40.414C135.965 42.822 135.965 45.0293 135.965 47.036C135.965 49.0427 135.965 50.734 135.965 52.11C135.965 53.486 135.993 54.346 136.051 54.69C136.452 56.754 137.083 58.13 137.943 58.818C138.803 59.4487 139.806 59.764 140.953 59.764C142.271 59.764 143.418 59.334 144.393 58.474C145.367 57.5567 145.883 56.41 145.941 55.034H147.833ZM188.27 26.138C188.27 26.2527 188.298 26.482 188.356 26.826C188.413 27.17 188.413 27.4567 188.356 27.686C188.298 28.89 187.868 29.8933 187.066 30.696C186.32 31.4413 185.403 31.814 184.314 31.814C183.167 31.814 182.192 31.4127 181.39 30.61C180.644 29.8073 180.272 28.8327 180.272 27.686C180.272 26.2527 180.816 25.1633 181.906 24.418C182.02 24.3607 182.078 24.332 182.078 24.332C182.135 24.2747 182.192 24.2173 182.25 24.16C182.651 23.8733 182.909 23.472 183.024 22.956C183.138 22.3827 182.794 21.8953 181.992 21.494C181.476 21.2073 180.96 21.064 180.444 21.064C178.724 20.9493 177.204 21.4653 175.886 22.612C174.567 23.7587 173.678 25.7653 173.22 28.632V57.356C173.22 58.1587 173.334 58.7607 173.564 59.162C173.793 59.506 174.022 59.7067 174.252 59.764C174.596 59.936 174.968 59.936 175.37 59.764V62H164.964V59.764C165.422 59.936 165.766 59.936 165.996 59.764C166.282 59.7067 166.569 59.506 166.856 59.162C167.142 58.7607 167.286 58.1587 167.286 57.356V24.59C167.286 23.7873 167.142 23.214 166.856 22.87C166.569 22.4687 166.282 22.2107 165.996 22.096C165.766 21.9813 165.422 21.9813 164.964 22.096V19.946H173.22V23.472C173.621 22.8413 174.022 22.268 174.424 21.752C174.825 21.1787 175.284 20.72 175.8 20.376C176.373 19.9747 177.004 19.6593 177.692 19.43C178.437 19.2007 179.354 19.086 180.444 19.086C182.106 19.086 183.654 19.688 185.088 20.892C186.521 22.096 187.582 23.8447 188.27 26.138ZM202.861 19.344C204.179 19.344 205.527 19.5733 206.903 20.032C208.279 20.4907 209.511 21.2073 210.601 22.182C211.69 23.1567 212.55 24.3893 213.181 25.88C213.869 27.3707 214.213 29.148 214.213 31.212V39.898V40.156V42.134H197.099V50.992C197.099 54.5467 197.701 57.098 198.905 58.646C200.166 60.1367 201.714 60.8533 203.549 60.796C204.638 60.7387 205.699 60.5667 206.731 60.28C207.82 59.936 208.737 59.3913 209.483 58.646C210.285 57.9007 210.945 56.84 211.461 55.464C211.977 54.088 212.235 52.282 212.235 50.046H214.213V51.25C214.213 52.798 214.041 54.2887 213.697 55.722C213.353 57.098 212.751 58.302 211.891 59.334C211.031 60.366 209.913 61.1973 208.537 61.828C207.218 62.4013 205.584 62.7167 203.635 62.774C202.259 62.774 200.854 62.516 199.421 62C197.987 61.484 196.697 60.71 195.551 59.678C194.404 58.646 193.458 57.442 192.713 56.066C191.967 54.6327 191.595 53.0273 191.595 51.25C191.595 50.8487 191.595 50.1893 191.595 49.272C191.595 48.2973 191.566 47.1793 191.509 45.918C191.509 44.6567 191.509 43.3093 191.509 41.876C191.509 40.3853 191.48 38.952 191.423 37.576C191.423 36.2 191.423 34.9673 191.423 33.878C191.423 32.7313 191.423 31.8713 191.423 31.298C191.423 29.234 191.767 27.4567 192.455 25.966C193.2 24.418 194.089 23.1853 195.121 22.268C196.21 21.2933 197.414 20.5767 198.733 20.118C200.109 19.602 201.485 19.344 202.861 19.344ZM208.451 39.898V33.104C208.451 30.9253 208.307 29.1193 208.021 27.686C207.734 26.1953 207.333 25.02 206.817 24.16C206.358 23.2427 205.785 22.612 205.097 22.268C204.409 21.924 203.635 21.752 202.775 21.752C200.94 21.752 199.535 22.5547 198.561 24.16C197.643 25.7653 197.185 28.7467 197.185 33.104V39.898H208.451ZM229.63 50.992C231.292 50.992 232.554 50.1893 233.414 48.584C234.331 46.9787 234.79 44.1407 234.79 40.07V31.986C234.79 27.9727 234.331 25.2207 233.414 23.73C232.554 22.182 231.292 21.408 229.63 21.408C227.967 21.408 226.677 22.182 225.76 23.73C224.9 25.2207 224.47 27.9727 224.47 31.986V40.07C224.47 44.1407 224.9 46.9787 225.76 48.584C226.677 50.1893 227.967 50.992 229.63 50.992ZM239.262 15.99C240.122 15.99 240.953 16.1907 241.756 16.592C242.042 16.7067 242.243 16.85 242.358 17.022C242.472 17.1367 242.587 17.3373 242.702 17.624L242.874 18.484C242.874 19.0573 242.673 19.5447 242.272 19.946C241.87 20.3473 241.412 20.548 240.896 20.548H240.81C240.236 20.548 239.749 20.376 239.348 20.032C238.946 19.6307 238.746 19.172 238.746 18.656C238.688 18.1973 238.516 17.968 238.23 17.968C237.886 17.968 237.456 18.14 236.94 18.484C236.481 18.7707 236.108 19.086 235.822 19.43C235.592 19.6593 235.363 20.0893 235.134 20.72C236.567 21.5227 237.771 22.698 238.746 24.246C239.72 25.794 240.208 27.772 240.208 30.18V42.22C240.208 43.7107 239.892 45.0867 239.262 46.348C238.631 47.6093 237.8 48.7273 236.768 49.702C235.793 50.6767 234.646 51.4507 233.328 52.024C232.066 52.54 230.834 52.798 229.63 52.798C228.082 52.798 226.505 52.4253 224.9 51.68C224.04 52.884 223.896 53.83 224.47 54.518C225.043 55.1487 226.734 55.5787 229.544 55.808C231.436 55.9227 233.012 56.324 234.274 57.012C235.592 57.6427 236.624 58.4453 237.37 59.42C238.115 60.3373 238.66 61.3407 239.004 62.43C239.405 63.5767 239.663 64.6373 239.778 65.612C239.95 66.644 240.007 67.5327 239.95 68.278C239.95 69.0807 239.95 69.654 239.95 69.998C239.892 70.5713 239.692 71.3167 239.348 72.234C239.004 73.2087 238.43 74.1547 237.628 75.072C236.882 75.9893 235.85 76.7633 234.532 77.394C233.213 78.082 231.522 78.426 229.458 78.426C227.164 78.426 225.244 77.9673 223.696 77.05C222.205 76.1327 221.087 75.0147 220.342 73.696C219.654 72.3773 219.281 71.0013 219.224 69.568C219.224 68.192 219.482 66.988 219.998 65.956C220.743 64.924 221.402 64.2933 221.976 64.064C222.606 63.8347 223.008 63.72 223.18 63.72C224.212 63.72 225.043 64.064 225.674 64.752C226.304 65.44 226.62 66.2427 226.62 67.16C226.62 68.1347 226.304 68.9373 225.674 69.568C225.043 70.256 224.212 70.6 223.18 70.6C222.09 70.6 221.632 70.944 221.804 71.632C221.976 72.3773 222.434 73.1227 223.18 73.868C223.753 74.3267 224.556 74.8427 225.588 75.416C226.677 76.0467 227.852 76.362 229.114 76.362H229.544C231.493 76.2473 233.041 75.7313 234.188 74.814C235.334 73.8967 236.137 72.8073 236.596 71.546C237.054 70.2847 237.169 69.0233 236.94 67.762C236.768 66.5007 236.309 65.4113 235.564 64.494C235.105 64.0353 234.474 63.634 233.672 63.29C232.869 62.946 232.009 62.6307 231.092 62.344C230.174 62.0573 229.286 61.828 228.426 61.656C227.566 61.4267 226.82 61.2833 226.19 61.226C225.444 61.054 224.699 60.882 223.954 60.71C223.266 60.538 222.606 60.3087 221.976 60.022C221.345 59.7353 220.829 59.3053 220.428 58.732C220.026 58.1587 219.826 57.356 219.826 56.324C219.826 54.776 220.17 53.5147 220.858 52.54C221.603 51.508 222.291 50.7913 222.922 50.39C221.775 49.4153 220.829 48.2687 220.084 46.95C219.338 45.574 218.966 43.9973 218.966 42.22V30.352C218.966 28.46 219.281 26.826 219.912 25.45C220.6 24.0167 221.431 22.87 222.406 22.01C223.438 21.0927 224.584 20.4333 225.846 20.032C227.107 19.5733 228.368 19.344 229.63 19.344C230.891 19.344 232.21 19.5733 233.586 20.032C233.987 18.5987 234.732 17.5667 235.822 16.936C236.968 16.3053 238.115 15.99 239.262 15.99ZM256.65 10.572C256.65 11.6613 256.278 12.5787 255.532 13.324C254.787 14.012 253.898 14.356 252.866 14.356C251.834 14.356 250.974 14.012 250.286 13.324C249.598 12.5787 249.254 11.6613 249.254 10.572C249.254 9.54 249.598 8.68 250.286 7.992C250.974 7.304 251.834 6.96 252.866 6.96C253.898 6.96 254.787 7.304 255.532 7.992C256.278 8.68 256.65 9.54 256.65 10.572ZM255.876 57.356C255.876 58.1587 255.991 58.7607 256.22 59.162C256.45 59.506 256.708 59.7067 256.994 59.764C257.281 59.936 257.625 59.936 258.026 59.764V62H247.706V59.764C248.108 59.936 248.48 59.936 248.824 59.764C249.111 59.7067 249.369 59.506 249.598 59.162C249.828 58.7607 249.942 58.1587 249.942 57.356V24.59C249.942 23.8447 249.828 23.3 249.598 22.956C249.369 22.5547 249.111 22.2967 248.824 22.182C248.48 22.0673 248.108 22.0673 247.706 22.182V20.032H255.876V57.356ZM275.685 19.344C277.061 19.344 278.437 19.5733 279.813 20.032C281.189 20.4907 282.451 21.2073 283.597 22.182C284.744 23.1567 285.661 24.418 286.349 25.966C287.095 27.514 287.467 29.3487 287.467 31.47V50.992C287.467 52.6547 287.095 54.2027 286.349 55.636C285.604 57.0693 284.658 58.302 283.511 59.334C282.422 60.366 281.189 61.1973 279.813 61.828C278.437 62.4587 277.061 62.774 275.685 62.774C274.309 62.774 272.905 62.516 271.471 62C270.095 61.484 268.863 60.71 267.773 59.678C266.684 58.646 265.767 57.4133 265.021 55.98C264.276 54.4893 263.903 52.8267 263.903 50.992V31.642C263.903 29.4633 264.247 27.6 264.935 26.052C265.681 24.504 266.598 23.2427 267.687 22.268C268.834 21.236 270.095 20.4907 271.471 20.032C272.905 19.5733 274.309 19.344 275.685 19.344ZM281.361 33.362C281.361 31.1833 281.218 29.3487 280.931 27.858C280.702 26.31 280.329 25.0773 279.813 24.16C279.355 23.2427 278.753 22.612 278.007 22.268C277.319 21.8667 276.517 21.666 275.599 21.666C273.765 21.666 272.36 22.526 271.385 24.246C270.411 25.9087 269.923 28.9473 269.923 33.362V48.67C269.923 53.0847 270.411 56.2093 271.385 58.044C272.36 59.8787 273.765 60.796 275.599 60.796C277.434 60.796 278.839 59.8787 279.813 58.044C280.845 56.2093 281.361 53.0847 281.361 48.67V33.362ZM307.264 19.344C310.303 19.4587 312.711 20.462 314.488 22.354C316.323 24.1887 317.24 27.1987 317.24 31.384V43.94V57.356C317.24 58.5027 317.441 59.2193 317.842 59.506C318.243 59.7353 318.587 59.85 318.874 59.85H319.304C319.361 59.85 319.419 59.8213 319.476 59.764V62H309.156V59.764C309.213 59.8213 309.271 59.85 309.328 59.85H309.672C309.959 59.85 310.274 59.7353 310.618 59.506C310.962 59.2767 311.191 58.7033 311.306 57.786V33.362C311.306 32.5593 311.277 31.8427 311.22 31.212C311.22 30.5813 311.22 30.008 311.22 29.492V29.406C311.105 26.5393 310.733 24.504 310.102 23.3C309.529 22.096 308.583 21.4367 307.264 21.322H306.92C305.085 21.322 303.509 22.01 302.19 23.386C300.929 24.762 300.155 27.084 299.868 30.352V57.356C299.868 58.5027 300.04 59.2193 300.384 59.506C300.785 59.7353 301.158 59.85 301.502 59.85H301.846C301.903 59.85 301.961 59.8213 302.018 59.764V62H291.698V59.764C291.755 59.8213 291.813 59.85 291.87 59.85H292.3C292.587 59.85 292.931 59.7353 293.332 59.506C293.791 59.2193 294.02 58.5027 294.02 57.356V24.504C294.02 23.4147 293.791 22.7267 293.332 22.44C292.931 22.1533 292.587 22.01 292.3 22.01C292.185 22.01 292.099 22.01 292.042 22.01C291.985 22.01 291.927 22.01 291.87 22.01H291.698V20.032H299.868V23.386C300.097 23.042 300.298 22.7267 300.47 22.44C300.642 22.1533 300.871 21.8953 301.158 21.666C302.075 20.806 303.136 20.1753 304.34 19.774H304.512C304.512 19.7167 304.541 19.688 304.598 19.688C304.999 19.5733 305.401 19.4873 305.802 19.43C306.203 19.3727 306.633 19.344 307.092 19.344H307.264Z" fill="url(#paint0_linear)"/>
<defs>
<linearGradient id="paint0_linear" x1="160.5" y1="-3" x2="160.5" y2="83" gradientUnits="userSpaceOnUse">
<stop offset="0.17329" stop-color="#E2FE52"/>
<stop offset="0.75697" stop-color="#ADC62C"/>
</linearGradient>
</defs>
</svg>
