<svg width="587" height="587" viewBox="0 0 587 587" fill="none" xmlns="http://www.w3.org/2000/svg">
<circle opacity="0.5" cx="292.5" cy="289.5" r="153.5" fill="black"/>
<path d="M233.176 337.176C233.176 338.63 233.383 339.72 233.798 340.446C234.213 341.069 234.628 341.432 235.042 341.536C235.665 341.848 236.39 341.848 237.22 341.536V345.584H217V341.536C217.933 341.848 218.866 341.848 219.8 341.536C220.422 341.432 221.044 341.069 221.666 340.446C222.288 339.72 222.599 338.63 222.599 337.176V248.891C222.599 247.334 222.288 246.244 221.666 245.621C221.044 244.999 220.422 244.583 219.8 244.376C218.866 244.064 217.933 244.064 217 244.376V240.483C218.97 240.379 220.837 240.068 222.599 239.549C223.947 239.03 225.192 238.407 226.332 237.68C227.577 236.85 228.199 235.76 228.199 234.411H233.176V242.819V337.176Z" fill="url(#paint0_linear)"/>
<path d="M289.654 261.348C289.965 264.877 290.172 268.977 290.276 273.648C290.483 278.216 290.535 282.991 290.431 287.973C290.431 292.956 290.328 297.938 290.12 302.921C289.913 307.8 289.55 312.212 289.031 316.156C288.824 317.298 288.461 318.907 287.943 320.983C287.528 322.955 286.854 325.135 285.921 327.523C285.091 329.91 283.95 332.349 282.499 334.841C281.151 337.228 279.492 339.408 277.522 341.38C275.551 343.249 273.27 344.65 270.678 345.584C268.086 346.623 265.182 347.09 261.968 346.986C258.753 346.674 256.057 345.688 253.88 344.027C251.806 342.263 250.199 340.239 249.058 337.955C247.917 335.567 247.243 333.076 247.036 330.481C246.932 327.782 247.243 325.343 247.969 323.163C248.695 320.879 249.887 319.011 251.547 317.557C253.206 316 255.176 315.222 257.457 315.222C259.531 315.222 261.346 316.052 262.901 317.713C264.456 319.27 265.234 321.139 265.234 323.319C265.234 325.187 264.664 326.796 263.523 328.145C262.486 329.495 261.138 330.377 259.479 330.792C259.375 330.792 259.272 330.844 259.168 330.948C259.064 330.948 258.909 330.948 258.701 330.948C257.146 331.571 256.057 332.557 255.435 333.907C254.917 335.152 254.865 336.502 255.28 337.955C255.694 339.304 256.628 340.55 258.079 341.692C259.531 342.73 261.501 343.249 263.99 343.249C266.582 343.249 268.656 342.367 270.211 340.602C271.767 338.733 273.011 336.398 273.944 333.595C274.981 330.689 275.759 327.523 276.277 324.097C276.796 320.672 277.21 317.298 277.522 313.976C277.625 313.042 277.729 311.848 277.833 310.395C277.936 308.838 277.988 307.229 277.988 305.568C278.092 303.803 278.144 302.091 278.144 300.43C278.247 298.665 278.299 297.004 278.299 295.447C274.981 299.392 271.041 301.208 266.478 300.897C263.782 300.689 261.034 299.859 258.235 298.406C255.539 296.952 253.102 294.772 250.924 291.866C248.747 288.856 246.984 285.119 245.636 280.655C244.392 276.192 243.977 271.053 244.392 265.24C244.807 260.154 245.584 255.742 246.725 252.005C247.969 248.268 249.525 245.154 251.391 242.663L251.702 242.352C251.702 242.352 251.702 242.3 251.702 242.196C251.806 241.988 251.858 241.884 251.858 241.884C251.961 241.781 252.065 241.625 252.169 241.417C253.724 239.756 255.383 238.251 257.146 236.902C258.494 235.76 259.894 234.878 261.346 234.255C262.901 233.528 264.456 233.113 266.012 233.009C269.745 232.905 273.011 233.684 275.811 235.345C278.61 236.902 280.943 239.03 282.81 241.729C284.676 244.428 286.18 247.49 287.32 250.915C288.461 254.237 289.239 257.714 289.654 261.348ZM266.634 296.849C269.019 297.056 271.196 296.381 273.166 294.824C275.24 293.267 276.951 290.361 278.299 286.105C278.299 283.095 278.247 280.084 278.144 277.074C278.04 273.96 277.936 271.053 277.833 268.354C277.729 265.655 277.573 263.268 277.366 261.192C277.262 259.012 277.107 257.247 276.899 255.898C276.588 253.303 276.277 250.863 275.966 248.58C275.655 246.296 275.188 244.324 274.566 242.663C274.048 241.002 273.218 239.705 272.078 238.77C270.937 237.732 269.33 237.213 267.256 237.213C265.597 237.213 264.093 237.732 262.745 238.77C261.501 239.808 260.412 241.417 259.479 243.597C258.65 245.777 257.924 248.735 257.302 252.472C256.783 256.106 256.316 260.517 255.902 265.707C255.487 271.209 255.539 275.88 256.057 279.721C256.576 283.562 257.302 286.78 258.235 289.375C259.168 291.97 260.36 293.89 261.812 295.136C263.368 296.278 264.975 296.849 266.634 296.849Z" fill="url(#paint1_linear)"/>
<path d="M309.65 290.932C309.65 299.859 309.754 307.592 309.961 314.132C310.168 320.568 310.635 325.966 311.361 330.325C312.087 334.581 313.124 337.747 314.472 339.823C315.82 341.899 317.634 342.937 319.916 342.937C322.197 342.937 324.011 341.899 325.359 339.823C326.707 337.747 327.744 334.581 328.47 330.325C329.196 325.966 329.663 320.568 329.87 314.132C330.181 307.592 330.337 299.859 330.337 290.932C330.337 282.108 330.233 274.479 330.026 268.043C329.818 261.503 329.352 256.157 328.626 252.005C327.9 247.749 326.863 244.583 325.515 242.507C324.167 240.431 322.3 239.393 319.916 239.393C317.634 239.393 315.82 240.431 314.472 242.507C313.124 244.583 312.087 247.749 311.361 252.005C310.635 256.157 310.168 261.503 309.961 268.043C309.754 274.479 309.65 282.108 309.65 290.932ZM319.916 235.189C324.063 235.189 327.485 236.331 330.181 238.615C332.877 240.794 335.055 244.22 336.714 248.891C338.373 253.459 339.513 259.272 340.136 266.33C340.861 273.389 341.224 281.797 341.224 291.555C341.224 301.312 340.81 309.668 339.98 316.623C339.15 323.578 337.854 329.287 336.092 333.751C334.432 338.214 332.255 341.536 329.559 343.716C326.863 345.792 323.648 346.83 319.916 346.83C316.286 346.83 313.124 345.792 310.428 343.716C307.835 341.64 305.658 338.422 303.895 334.062C302.236 329.599 300.992 323.941 300.162 317.09C299.333 310.239 298.918 301.987 298.918 292.333C298.918 283.198 299.229 275.102 299.851 268.043C300.577 260.881 301.717 254.86 303.273 249.981C304.932 245.102 307.109 241.417 309.805 238.926C312.501 236.435 315.872 235.189 319.916 235.189Z" fill="url(#paint2_linear)"/>
<path d="M363.956 337.176C363.956 338.63 364.163 339.72 364.578 340.446C364.993 341.069 365.408 341.432 365.822 341.536C366.445 341.848 367.17 341.848 368 341.536V345.584H347.78V341.536C348.713 341.848 349.646 341.848 350.58 341.536C351.202 341.432 351.824 341.069 352.446 340.446C353.068 339.72 353.379 338.63 353.379 337.176V248.891C353.379 247.334 353.068 246.244 352.446 245.621C351.824 244.999 351.202 244.583 350.58 244.376C349.646 244.064 348.713 244.064 347.78 244.376V240.483C349.75 240.379 351.617 240.068 353.379 239.549C354.727 239.03 355.972 238.407 357.112 237.68C358.357 236.85 358.979 235.76 358.979 234.411H363.956V242.819V337.176Z" fill="url(#paint3_linear)"/>
<g filter="url(#filter0_d)">
<circle cx="293.5" cy="289.5" r="289" stroke="url(#paint4_linear)"/>
</g>
<defs>
<filter id="filter0_d" x="0" y="0" width="587" height="587" filterUnits="userSpaceOnUse" color-interpolation-filters="sRGB">
<feFlood flood-opacity="0" result="BackgroundImageFix"/>
<feColorMatrix in="SourceAlpha" type="matrix" values="0 0 0 0 0 0 0 0 0 0 0 0 0 0 0 0 0 0 127 0"/>
<feOffset dy="4"/>
<feGaussianBlur stdDeviation="2"/>
<feColorMatrix type="matrix" values="0 0 0 0 0 0 0 0 0 0 0 0 0 0 0 0 0 0 0.25 0"/>
<feBlend mode="normal" in2="BackgroundImageFix" result="effect1_dropShadow"/>
<feBlend mode="normal" in="SourceGraphic" in2="effect1_dropShadow" result="shape"/>
</filter>
<linearGradient id="paint0_linear" x1="292.5" y1="233" x2="292.5" y2="347" gradientUnits="userSpaceOnUse">
<stop stop-color="#E3FF53"/>
<stop offset="0.716861" stop-color="#ADC62C"/>
</linearGradient>
<linearGradient id="paint1_linear" x1="292.5" y1="233" x2="292.5" y2="347" gradientUnits="userSpaceOnUse">
<stop stop-color="#E3FF53"/>
<stop offset="0.716861" stop-color="#ADC62C"/>
</linearGradient>
<linearGradient id="paint2_linear" x1="292.5" y1="233" x2="292.5" y2="347" gradientUnits="userSpaceOnUse">
<stop stop-color="#E3FF53"/>
<stop offset="0.716861" stop-color="#ADC62C"/>
</linearGradient>
<linearGradient id="paint3_linear" x1="292.5" y1="233" x2="292.5" y2="347" gradientUnits="userSpaceOnUse">
<stop stop-color="#E3FF53"/>
<stop offset="0.716861" stop-color="#ADC62C"/>
</linearGradient>
<linearGradient id="paint4_linear" x1="293.5" y1="0" x2="293.5" y2="579" gradientUnits="userSpaceOnUse">
<stop stop-color="#D9FF12"/>
<stop offset="1" stop-color="#D19E1A"/>
</linearGradient>
</defs>
</svg>
